<svg width="100%" height="100%" id="svg" viewBox="0 0 1440 390" xmlns="http://www.w3.org/2000/svg" class="transition duration-300 ease-in-out delay-150"><defs><linearGradient id="gradient" x1="54%" y1="0%" x2="46%" y2="100%"><stop offset="5%" stop-color="#2d5099"></stop><stop offset="95%" stop-color="#8ED1FC"></stop></linearGradient></defs><path d="M 0,400 L 0,60 C 205.71428571428572,77.14285714285714 822.8571428571429,68.57142857142857 1440,60 L 1440,400 L 0,400 Z" stroke="none" stroke-width="0" fill="url(#gradient)" fill-opacity="0.265" class="transition-all duration-300 ease-in-out delay-150 path-0"></path><defs><linearGradient id="gradient" x1="54%" y1="0%" x2="46%" y2="100%"><stop offset="5%" stop-color="#2d5099"></stop><stop offset="95%" stop-color="#8ED1FC"></stop></linearGradient></defs><path d="M 0,400 L 0,140 C 205.71428571428572,180 822.8571428571429,160 1440,140 L 1440,400 L 0,400 Z" stroke="none" stroke-width="0" fill="url(#gradient)" fill-opacity="0.4" class="transition-all duration-300 ease-in-out delay-150 path-1"></path><defs><linearGradient id="gradient" x1="54%" y1="0%" x2="46%" y2="100%"><stop offset="5%" stop-color="#2d5099"></stop><stop offset="95%" stop-color="#8ED1FC"></stop></linearGradient></defs><path d="M 0,400 L 0,220 C 205.71428571428572,282.85714285714283 822.8571428571429,251.42857142857142 1440,220 L 1440,400 L 0,400 Z" stroke="none" stroke-width="0" fill="url(#gradient)" fill-opacity="0.53" class="transition-all duration-300 ease-in-out delay-150 path-2"></path><defs><linearGradient id="gradient" x1="54%" y1="0%" x2="46%" y2="100%"><stop offset="5%" stop-color="#2d5099"></stop><stop offset="95%" stop-color="#8ED1FC"></stop></linearGradient></defs><path d="M 0,400 L 0,300 C 205.71428571428572,385.7142857142857 822.8571428571429,342.8571428571429 1440,300 L 1440,400 L 0,400 Z" stroke="none" stroke-width="0" fill="url(#gradient)" fill-opacity="1" class="transition-all duration-300 ease-in-out delay-150 path-3"></path></svg>